<?xml version="1.0" encoding="iso-8859-1"?>
<!-- Generator: Adobe Illustrator 18.1.1, SVG Export Plug-In . SVG Version: 6.00 Build 0)  -->
<svg version="1.1" id="Capa_1" xmlns="http://www.w3.org/2000/svg" xmlns:xlink="http://www.w3.org/1999/xlink" x="0px" y="0px"
	 viewBox="0 0 368.603 368.603" style="enable-background:new 0 0 368.603 368.603;" xml:space="preserve">
<g>
	<path style="fill:#fff;" d="M368.603,216.821c0-1.796-0.095-3.562-0.269-5.305c-3.121-96.807-81.263-174.931-178.069-178.033
		V4.305h-11.934v29.178C81.507,36.586,3.365,114.734,0.263,211.564C0.09,213.289,0,215.049,0,216.821h0.125
		c0,0.233-0.018,0.465-0.018,0.698h11.934c0-1.671,0.078-3.335,0.125-4.988c2.094-19.798,18.503-35.27,38.379-35.27
		c21.296,0,38.618,17.745,38.618,39.56h11.934c0-21.815,17.322-39.56,38.618-39.56c21.254,0,38.546,17.686,38.612,39.441v115.984
		c0,17.429,13.945,31.612,31.081,31.612s31.075-14.183,31.075-31.612h-11.934c0,10.848-8.586,19.679-19.142,19.679
		c-10.561,0-19.148-8.825-19.148-19.679V216.821h0.012c0-21.815,17.322-39.56,38.624-39.56c21.254,0,38.546,17.686,38.612,39.441
		c0,0.036-0.006,0.078-0.006,0.119h0.012h11.922h0.012c0-0.042-0.006-0.084-0.006-0.119c0.066-21.755,17.358-39.441,38.618-39.441
		c19.858,0,36.255,15.442,38.373,35.222c0.048,1.677,0.125,3.347,0.125,5.036h11.934c0-0.233-0.018-0.465-0.018-0.698H368.603z
		 M318.052,165.327c-19.273,0-36.058,11.057-44.584,27.257c-8.527-16.206-25.3-27.257-44.578-27.257s-36.064,11.063-44.59,27.275
		c-8.521-16.218-25.3-27.275-44.584-27.275s-36.064,11.063-44.584,27.275c-8.521-16.218-25.305-27.275-44.584-27.275
		c-13.139,0-25.091,5.179-34.089,13.581c17.584-76.448,86.132-133.64,167.836-133.64c81.698,0,150.252,57.192,167.836,133.634
		C343.131,170.506,331.185,165.327,318.052,165.327z"/>
</g>
<g>
</g>
<g>
</g>
<g>
</g>
<g>
</g>
<g>
</g>
<g>
</g>
<g>
</g>
<g>
</g>
<g>
</g>
<g>
</g>
<g>
</g>
<g>
</g>
<g>
</g>
<g>
</g>
<g>
</g>
</svg>
